<svg class="picto-01" xmlns="http://www.w3.org/2000/svg" viewBox="379 2405 84.502 69.4">
                  <g transform="translate(378.993 2405)">
                    <path style="fill:#fd5300;" d="M.792,41.192a3.084,3.084,0,0,0,2.119,5.165,2.94,2.94,0,0,0,2.914-2.914A3,3,0,0,0,.792,41.192Z" transform="translate(0 13.11)"></path>
                    <path style="fill:#fd5300;" d="M81.917,2.649A8.919,8.919,0,0,0,75.56,0h0L24.3.132,9.339,0h0a9,9,0,0,0-6.49,2.649A8.919,8.919,0,0,0,.2,9.006V39.468a2.657,2.657,0,0,0,2.649,2.649h0A2.657,2.657,0,0,0,5.5,39.468V9.006a3.7,3.7,0,0,1,1.06-2.649A4.206,4.206,0,0,1,9.206,5.3h0l15.1.132L75.427,5.3h0a3.621,3.621,0,0,1,3.708,3.708V50.063a3.832,3.832,0,0,1-3.311,3.708H11.193a2.649,2.649,0,0,0,0,5.3H30.132L25.1,65.029a2.687,2.687,0,0,0,.265,3.708,2.789,2.789,0,0,0,1.722.662,2.383,2.383,0,0,0,1.987-.927l7.682-9.006.265-.265h10.86l7.682,8.874A2.558,2.558,0,0,0,57.548,69a2.789,2.789,0,0,0,1.722-.662,2.687,2.687,0,0,0,.265-3.708L54.9,59.2H76.09A9.177,9.177,0,0,0,84.434,50.2V9.139A8.388,8.388,0,0,0,81.917,2.649Z" transform="translate(0.063)"></path>
                  </g>
                </svg>